<!DOCTYPE svg PUBLIC "-//W3C//DTD SVG 1.1//EN" "http://www.w3.org/Graphics/SVG/1.1/DTD/svg11.dtd">
<!-- Uploaded to: SVG Repo, www.svgrepo.com, Transformed by: SVG Repo Mixer Tools -->
<svg fill="#808080" version="1.1" id="Capa_1" xmlns="http://www.w3.org/2000/svg" xmlns:xlink="http://www.w3.org/1999/xlink" width="800px" height="800px" viewBox="0 0 45.62 45.619" xml:space="preserve" stroke="#808080">
<g id="SVGRepo_bgCarrier" stroke-width="0"/>
<g id="SVGRepo_tracerCarrier" stroke-linecap="round" stroke-linejoin="round"/>
<g id="SVGRepo_iconCarrier"> <g> <path d="M34.833,11.545c-0.849-1.062-2.131-1.666-3.611-1.666H30.74V9.314c0-1.458-0.97-2.407-2.428-2.407h-3.517V3.936h2.098 c1.095,0,1.982-0.873,1.982-1.968C28.875,0.872,27.988,0,26.893,0h-8.168c-1.096,0-1.984,0.872-1.984,1.968 c0,1.095,0.888,1.968,1.984,1.968h2.136v2.971h-2.892c-1.458,0-3.131,0.949-3.131,2.407v0.565h-0.441 c-1.498,0-2.78,0.592-3.613,1.634C9.89,12.632,9.58,13.95,9.888,15.311l1.148,4.998c0.47,2.078,2.281,3.464,4.509,3.464h0.819 v15.902h-0.643c-2.384,0-4.337,2.227-4.337,4.61v1.333h4.979h12.893h4.938v-1.333c0-2.384-2.122-4.61-4.505-4.61h-0.395V23.773 h0.779c2.228,0,4.041-1.381,4.508-3.45l1.15-4.979C36.04,13.981,35.73,12.665,34.833,11.545z M14.902,19.449l-1.148-5.009 c-0.026-0.118-0.047-0.207,0.128-0.426c0.06-0.075,0.261-0.119,0.513-0.119h6.465v5.943h-5.316 C15.378,19.838,14.982,19.799,14.902,19.449z M31.865,14.475l-1.151,4.979c-0.078,0.345-0.474,0.384-0.641,0.384h-5.277v-5.943 h6.427c0.116,0,0.4,0.01,0.514,0.15C31.9,14.252,31.893,14.351,31.865,14.475z"/> </g> </g>
</svg>